<?xml version="1.0" encoding="utf-8"?>
<!-- Generator: Adobe Illustrator 19.0.0, SVG Export Plug-In . SVG Version: 6.00 Build 0)  -->
<svg version="1.1" id="Layer_1" xmlns="http://www.w3.org/2000/svg" xmlns:xlink="http://www.w3.org/1999/xlink" x="0px" y="0px"
	 viewBox="0 0 700 700" style="enable-background:new 0 0 700 700;" xml:space="preserve">
<style type="text/css">
	.st0{fill:#FFFFFF;}
</style>
<g id="XMLID_2_">
	<path id="XMLID_29_" class="st0" d="M351.5,329.3c0.9,0,1.4,0,2,0c25.6,0,51.2,0,76.8,0c1,0,1.8,0.1,2.2-1.4
		c6-21.4,12.2-42.7,18.3-64c6.7-23.3,13.3-46.6,20-69.9c3.4-12,7-24,10.4-36c1.5-5.2,6.4-8.4,11.4-7.6c4.8,0.8,8.2,5.3,7.5,10.7
		c-0.6,4.5-2.1,8.9-3.3,13.3c-6.9,24.3-13.9,48.5-20.8,72.8c-7,24.4-14,48.7-21,73.1c-11,38.4-22,76.9-33,115.3
		c-6.5,22.8-13.2,45.6-19.7,68.3c-2.4,8.3-3.8,16.8-3.2,25.5c1.4,20.6,13.6,35.6,34.4,40.2c2,0.4,4.1,0.5,5.9,1.1
		c2,0.7,4.2,1.6,5.7,3.1c3.2,3,2.6,7.3-1.1,9.8c-2.6,1.7-5.6,2.1-8.5,1.7c-12.4-1.6-23.9-5.4-33.9-13.1
		c-12.3-9.5-19.1-22.1-21.3-37.3c-1.7-12.1,0-23.8,3.3-35.4c11.4-40,22.7-80.1,34.1-120.2c3.3-11.6,6.7-23.2,10.1-35.1
		c-0.7,0-1.3,0-1.9,0c-25.5,0-51,0-76.5,0c-1.4,0-1.9,0.5-2.3,1.8c-6.8,23.7-13.6,47.4-20.5,71.1c-3,10.5-6.1,21.1-11.1,30.9
		c-9.5,18.8-22.8,34.2-40.5,45.7c-12.5,8-26,13.1-40.8,14.6c-13.2,1.3-26-0.2-37.9-6.2c-16.7-8.4-26.6-21.9-29.6-40.4
		c-1-6.4-0.9-12.7,0.1-19.1c0.8-5.1,5.3-8.2,11.2-7.8c4.5,0.3,8.2,4.2,8.2,9c0,3.9-0.5,7.9-0.3,11.8c0.9,14.6,6.9,26.2,20.1,33.4
		c7.7,4.2,16,5.3,24.6,4.5c20.2-1.9,36.1-11.7,49.6-26.3c12.5-13.6,20.5-29.5,25.4-47.2c6.5-23.7,13.4-47.3,20.2-70.9
		c9.3-32.4,18.5-64.7,27.8-97.1c2.1-7.4,4.2-14.9,5-22.6c1.5-14.9-0.5-29.1-9.6-41.5c-7.6-10.4-18.1-16.4-30.6-18.9
		c-14.6-3-29-1.7-43.2,2.5c-16.3,4.9-30.6,13.5-42.9,25.1c-17,16-28.4,35.4-34,58.1c-2.2,9.2-2.6,18.5,0.6,27.6
		c4.1,11.7,12.5,18.5,24.4,20.7c14.9,2.7,28.2-1.3,39.9-10.8c10.6-8.7,17.6-19.7,20.8-33c1.7-7.1,1.6-14.2-1.6-20.9
		c-2.3-5-6.1-8.4-11.3-10.5c-2.1-0.8-4.3-1.8-6-3.3c-3.7-3.4-2.8-8.5,1.7-10.8c2.6-1.3,5.4-1.7,8.3-0.9
		c15.3,4.2,25.4,13.5,28.8,29.3c1.9,8.7,0.7,17.2-2.1,25.5c-8.3,24.6-25.3,40.4-49.8,48.2c-14.1,4.5-28.5,4.3-42.5-0.7
		c-17-6-27.5-18-31.1-35.7c-2.7-13.7-0.3-27,4.3-39.9c5.4-15.2,13.5-28.8,24-41c11.9-13.9,26-24.9,42.4-33.1
		c13.3-6.7,27.3-11,42.1-12.4c16.4-1.6,32.5-0.5,47.8,6.1c21.5,9.3,34.3,25.6,38.5,48.6c2.6,14.3,0.9,28.3-2.9,42.2
		c-6.5,23.2-13.2,46.3-19.8,69.4C353.5,322.6,352.6,325.8,351.5,329.3z"/>
	<path id="XMLID_28_" class="st0" d="M95.3,576c0,18.9,0,37.7,0,56.7c-4.9,0-9.5,0-14.3,0c-0.1-0.8-0.2-1.6-0.2-2.5
		c0-23.1,0-46.2,0-69.3c0-8.7-0.2-17.4-0.4-26.1c0-0.6,0-1.2,0-1.9c50.9,71.9,118.4,118.8,205,136c86.4,17.2,167.4,2,241.2-46.1
		C596.8,577.1,643,513.1,663.9,432c20.9-80.9,10.9-158.8-27-233.3c0.4,0,0.8-0.1,1.2-0.1c4.5,0,8.9,0,13.4,0c1.1,0,1.6,0.4,2.1,1.3
		c11.6,23.5,20.5,48,26.4,73.5c2.9,12.2,5,24.6,6.5,37.1c1.5,12.8,2.3,25.7,2.3,38.6c0,12.4-0.3,24.8-1.9,37.2
		c-1.4,11-2.8,22.1-5,33c-8.9,43.3-25.7,83.4-50.3,120.2c-23.7,35.4-53.1,65.3-88,89.7c-29.4,20.6-61.3,36-95.5,46.4
		c-17.1,5.2-34.5,8.9-52.2,11.3c-18.9,2.6-37.9,3.5-57,3c-18.5-0.5-36.9-2.6-55.1-6.2c-44.1-8.8-84.9-25.6-122.3-50.5
		c-23.9-16-45.5-34.7-64.7-56.1c-0.3-0.4-0.7-0.7-1.1-1.1C95.7,576,95.5,576,95.3,576z"/>
	<path id="XMLID_27_" class="st0" d="M36.1,436.2c-4.6,0-9.2,0-14,0c-0.1,0.6-0.1,1.2-0.2,1.7C-4.8,343.5,8.2,196.2,130.3,92.2
		c64.1-54.6,139.1-81.4,223.3-80.5c84.2,0.9,157.9,30.3,221.6,85.5c0-20.2,0-40.3,0-60.5c5,0,9.8,0,14.6,0c0,31.7,0,63.4,0,95.3
		c-54.6-58.2-120.9-93.6-200-103.4c-72.6-9-141,4.8-204.2,42C122.5,107.8,76.7,160.4,49,228.2C21.3,295.9,17.9,365.4,36.1,436.2z"/>
</g>
</svg>
